<?xml version="1.0" standalone="no"?>
<!DOCTYPE svg PUBLIC "-//W3C//DTD SVG 20010904//EN"
 "http://www.w3.org/TR/2001/REC-SVG-20010904/DTD/svg10.dtd">
<svg version="1.0" xmlns="http://www.w3.org/2000/svg"
 width="512.000000pt" height="512.000000pt" viewBox="0 0 512.000000 512.000000"
 preserveAspectRatio="xMidYMid meet">
<metadata>
Created by potrace 1.11, written by Peter Selinger 2001-2013
</metadata>
<g transform="translate(0.000000,512.000000) scale(0.100000,-0.100000)"
fill="#000000" stroke="none">
<path d="M2407 4949 c-87 -12 -182 -38 -261 -71 -77 -31 -193 -94 -214 -115
-8 -7 -23 -18 -34 -24 -62 -33 -192 -171 -264 -279 -88 -132 -158 -317 -179
-473 -6 -42 -9 -47 -28 -42 -95 24 -276 31 -372 15 -47 -8 -65 -11 -124 -24
-82 -18 -204 -69 -296 -124 -498 -297 -685 -933 -426 -1450 62 -126 118 -201
223 -304 84 -82 176 -148 270 -194 l57 -27 -25 -49 c-51 -101 -96 -236 -111
-335 -9 -60 -10 -293 -2 -353 61 -424 404 -799 827 -905 85 -21 128 -27 253
-39 15 -1 35 1 45 5 11 3 31 3 47 -2 15 -4 27 -4 27 0 0 4 17 8 38 9 54 3 197
40 272 70 138 55 269 142 380 253 33 32 61 59 62 59 2 0 45 -41 97 -90 51 -50
100 -90 107 -90 8 0 14 -3 14 -8 0 -4 17 -16 38 -27 20 -11 39 -23 42 -27 11
-14 170 -81 249 -104 90 -26 120 -31 221 -40 36 -2 71 -7 78 -9 6 -2 12 -1 12
3 0 4 35 8 77 9 98 2 204 26 318 70 292 114 527 351 640 648 9 22 8 19 30 95
21 73 21 75 30 145 30 236 -17 481 -132 696 -2 4 11 12 29 20 74 29 214 133
302 224 51 52 140 177 179 252 48 91 103 259 112 343 4 36 9 72 10 81 4 18 8
101 5 109 0 3 -3 37 -6 75 -5 82 -44 247 -77 325 -123 295 -358 521 -652 628
-181 66 -413 84 -592 46 -30 -6 -33 -4 -34 17 -2 25 -4 43 -13 94 -32 185
-119 375 -240 519 -108 130 -248 237 -397 305 -70 32 -211 76 -274 86 -64 10
-275 12 -338 4z"/>
</g>
</svg>
