<?xml version="1.0" standalone="no"?>
<!DOCTYPE svg PUBLIC "-//W3C//DTD SVG 20010904//EN"
 "http://www.w3.org/TR/2001/REC-SVG-20010904/DTD/svg10.dtd">
<svg version="1.0" xmlns="http://www.w3.org/2000/svg"
 width="512.000000pt" height="512.000000pt" viewBox="0 0 512.000000 512.000000"
 preserveAspectRatio="xMidYMid meet">
<metadata>
Created by potrace 1.11, written by Peter Selinger 2001-2013
</metadata>
<g transform="translate(0.000000,512.000000) scale(0.100000,-0.100000)"
fill="#000000" stroke="none">
<path d="M2350 4708 c-370 -75 -673 -338 -793 -688 -15 -41 -31 -93 -36 -115
l-10 -40 -113 2 c-224 3 -419 -55 -613 -182 -82 -53 -230 -204 -290 -294 -48
-74 -120 -227 -129 -275 -3 -14 -7 -29 -9 -33 -3 -5 -8 -24 -11 -43 -3 -19
-10 -57 -15 -84 -14 -76 -6 -290 14 -376 34 -144 102 -293 183 -402 61 -81
173 -190 256 -245 l74 -50 -17 -39 c-16 -35 -45 -131 -57 -187 -24 -110 -24
-286 1 -422 26 -136 116 -328 209 -445 46 -57 168 -171 226 -210 188 -127 380
-187 608 -188 256 -1 484 83 683 250 l56 47 29 -30 c78 -81 273 -189 414 -228
110 -31 150 -35 310 -35 152 1 244 17 370 66 67 26 201 98 220 118 3 3 23 18
45 35 144 106 283 297 348 480 81 228 80 501 -3 716 l-20 54 22 15 c264 178
432 427 483 719 21 122 13 325 -19 446 -61 234 -196 433 -402 594 -60 47 -204
120 -294 150 -141 46 -321 65 -429 46 -28 -5 -31 -3 -41 37 -46 175 -80 259
-155 374 -235 362 -673 548 -1095 462z"/>
</g>
</svg>
