<?xml version="1.0" standalone="no"?>
<!DOCTYPE svg PUBLIC "-//W3C//DTD SVG 20010904//EN"
 "http://www.w3.org/TR/2001/REC-SVG-20010904/DTD/svg10.dtd">
<svg version="1.0" xmlns="http://www.w3.org/2000/svg"
 width="512.000000pt" height="512.000000pt" viewBox="0 0 512.000000 512.000000"
 preserveAspectRatio="xMidYMid meet">
<metadata>
Created by potrace 1.11, written by Peter Selinger 2001-2013
</metadata>
<g transform="translate(0.000000,512.000000) scale(0.100000,-0.100000)"
fill="#000000" stroke="none">
<path d="M2415 4709 c-22 -4 -56 -10 -75 -14 -122 -23 -244 -74 -360 -151 -89
-58 -240 -205 -296 -289 -70 -104 -131 -251 -158 -375 l-5 -25 -118 2 c-65 1
-140 -3 -168 -8 -27 -5 -66 -12 -84 -15 -19 -3 -67 -17 -105 -31 -368 -132
-622 -429 -701 -818 -4 -16 -8 -86 -10 -155 -6 -231 43 -408 172 -613 63 -100
211 -245 311 -304 49 -29 48 -26 12 -126 -58 -163 -71 -355 -35 -560 4 -17 17
-66 31 -107 104 -309 316 -531 634 -664 140 -58 401 -82 551 -51 36 8 77 16
90 19 123 24 324 132 437 234 l33 29 32 -29 c88 -83 248 -175 377 -217 114
-37 206 -49 350 -47 285 6 519 105 721 306 156 154 243 315 289 530 41 191 27
407 -39 581 -11 29 -20 53 -18 54 36 17 140 99 202 160 152 150 262 355 301
562 13 72 12 299 -3 375 -86 455 -450 803 -903 863 -53 7 -248 7 -260 0 -5 -3
-11 -1 -11 4 -1 6 -2 14 -3 19 -1 4 -6 23 -10 42 -17 77 -68 212 -107 282
-159 280 -415 466 -729 529 -68 13 -291 19 -345 8z"/>
</g>
</svg>
